<svg version="1.1" xmlns="http://www.w3.org/2000/svg" viewBox="0 0 336.92739425153036 334.1289183640997" width="336.92739425153036" height="334.1289183640997">
  <!-- svg-source:excalidraw -->
  
  <defs>
    <style class="style-fonts">
      @font-face {
        font-family: "Virgil";
        src: url("https://excalidraw.com/Virgil.woff2");
      }
      @font-face {
        font-family: "Cascadia";
        src: url("https://excalidraw.com/Cascadia.woff2");
      }
    </style>
    
  </defs>
  <g transform="translate(193.4207979132135 47.35191197794238) rotate(0 6.55999755859375 12.5)"><text x="0" y="0" font-family="Virgil, Segoe UI Emoji" font-size="20px" fill="#1e1e1e" text-anchor="start" style="white-space: pre;" direction="ltr" dominant-baseline="text-before-edge">A</text></g><g transform="translate(193.4207979132135 126.35191197794238) rotate(0 7.269996643066406 12.5)"><text x="0" y="0" font-family="Virgil, Segoe UI Emoji" font-size="20px" fill="#1e1e1e" text-anchor="start" style="white-space: pre;" direction="ltr" dominant-baseline="text-before-edge">B</text></g><g transform="translate(141.1508012701471 205.8519119779424) rotate(0 6.439994812011719 12.5)"><text x="0" y="0" font-family="Virgil, Segoe UI Emoji" font-size="20px" fill="#1e1e1e" text-anchor="start" style="white-space: pre;" direction="ltr" dominant-baseline="text-before-edge">C</text></g><g transform="translate(264.1508012701471 208.8519119779424) rotate(0 7.799995422363281 12.5)"><text x="0" y="0" font-family="Virgil, Segoe UI Emoji" font-size="20px" fill="#1e1e1e" text-anchor="start" style="white-space: pre;" direction="ltr" dominant-baseline="text-before-edge">D</text></g><g transform="translate(144.1508012701471 270.8519119779424) rotate(0 6.739997863769531 12.5)"><text x="0" y="0" font-family="Virgil, Segoe UI Emoji" font-size="20px" fill="#1e1e1e" text-anchor="start" style="white-space: pre;" direction="ltr" dominant-baseline="text-before-edge">E</text></g><g transform="translate(264.1508012701471 270.8519119779424) rotate(0 5.739997863769531 12.5)"><text x="0" y="0" font-family="Virgil, Segoe UI Emoji" font-size="20px" fill="#1e1e1e" text-anchor="start" style="white-space: pre;" direction="ltr" dominant-baseline="text-before-edge">F</text></g><g stroke-linecap="round" transform="translate(116.4207979132135 40.35191197794238) rotate(0 85 18.5)"><path d="M9.25 0 M9.25 0 C42.54 2.73, 80.43 2.18, 160.75 0 M9.25 0 C50.49 -1.26, 92.09 -0.97, 160.75 0 M160.75 0 C167.87 0.42, 168.72 2.21, 170 9.25 M160.75 0 C166.96 1.7, 168.3 4.62, 170 9.25 M170 9.25 C168.47 14.28, 168.12 21.33, 170 27.75 M170 9.25 C170.19 13.53, 169.38 19.72, 170 27.75 M170 27.75 C169.99 32.37, 168.02 37.89, 160.75 37 M170 27.75 C170.43 33.92, 167.25 36.38, 160.75 37 M160.75 37 C102.6 38.98, 43.69 38.04, 9.25 37 M160.75 37 C105.11 37.37, 48.03 37.64, 9.25 37 M9.25 37 C2.7 37.47, -0.58 33.92, 0 27.75 M9.25 37 C1.49 36.46, 0.9 34.18, 0 27.75 M0 27.75 C-0.27 21.87, -0.05 16.42, 0 9.25 M0 27.75 C0.28 21.88, -0.09 16.2, 0 9.25 M0 9.25 C1.79 3.68, 1.24 1.7, 9.25 0 M0 9.25 C0.59 4.94, 5.15 -1.38, 9.25 0" stroke="#1e1e1e" stroke-width="1" fill="none"></path></g><g stroke-linecap="round" transform="translate(119.4207979132135 118.85191197794238) rotate(0 85 18.5)"><path d="M9.25 0 M9.25 0 C61.1 -1.44, 113.42 -2.11, 160.75 0 M9.25 0 C44.54 -0.8, 78.62 -1.76, 160.75 0 M160.75 0 C166.12 2, 169.48 4.29, 170 9.25 M160.75 0 C166.68 0.13, 167.74 3.23, 170 9.25 M170 9.25 C170.75 17.63, 169 24.58, 170 27.75 M170 9.25 C169.88 16.36, 169.08 23.44, 170 27.75 M170 27.75 C168.3 35.62, 168.03 37.03, 160.75 37 M170 27.75 C171.95 35.75, 164.85 35.75, 160.75 37 M160.75 37 C99.41 35.67, 41.13 37.25, 9.25 37 M160.75 37 C114.28 36.15, 67.06 37.19, 9.25 37 M9.25 37 C4.96 38.84, 1.51 34.52, 0 27.75 M9.25 37 C1.23 38.73, -1.5 34.42, 0 27.75 M0 27.75 C-0.77 22.7, 0.58 13.17, 0 9.25 M0 27.75 C0.12 22.03, 0.67 16.63, 0 9.25 M0 9.25 C-1.62 2.42, 1.76 -1.37, 9.25 0 M0 9.25 C-1.47 4.36, 3.61 -2.04, 9.25 0" stroke="#1e1e1e" stroke-width="1" fill="none"></path></g><g stroke-linecap="round" transform="translate(122.4207979132135 201.8519119779424) rotate(0 85 18.5)"><path d="M9.25 0 M9.25 0 C40.27 -1.7, 71.22 -1.79, 160.75 0 M9.25 0 C68.47 0.77, 125.09 -0.57, 160.75 0 M160.75 0 C168.8 1.56, 168.8 1.48, 170 9.25 M160.75 0 C166.43 -0.16, 171.34 3.29, 170 9.25 M170 9.25 C168.9 15.23, 170.82 23.17, 170 27.75 M170 9.25 C169.39 17.2, 169.54 23.96, 170 27.75 M170 27.75 C170.97 32.96, 168.68 36.07, 160.75 37 M170 27.75 C171.73 34.53, 164.81 37.03, 160.75 37 M160.75 37 C107.2 39.02, 54.33 35.73, 9.25 37 M160.75 37 C119.67 36.52, 80.11 35.08, 9.25 37 M9.25 37 C4.53 37.02, 0.52 35.22, 0 27.75 M9.25 37 C2.66 36.95, 1.74 32.97, 0 27.75 M0 27.75 C-0.09 22.97, -1.19 16.15, 0 9.25 M0 27.75 C0.71 21.27, 0.07 14.02, 0 9.25 M0 9.25 C-1.2 3.07, 1.97 0.64, 9.25 0 M0 9.25 C-0.76 3.63, 2.43 1.75, 9.25 0" stroke="#1e1e1e" stroke-width="1" fill="none"></path></g><g stroke-linecap="round" transform="translate(126.4207979132135 262.8519119779424) rotate(0 85 18.5)"><path d="M9.25 0 M9.25 0 C48.98 1.24, 83.85 0.73, 160.75 0 M9.25 0 C62.34 0.48, 115.76 -1.17, 160.75 0 M160.75 0 C166.25 -1.32, 168.63 1.8, 170 9.25 M160.75 0 C168.19 0.53, 167.96 4.74, 170 9.25 M170 9.25 C169.71 14.78, 171.44 19.62, 170 27.75 M170 9.25 C170.19 14.46, 169.64 18.65, 170 27.75 M170 27.75 C171.05 32.5, 164.94 38.24, 160.75 37 M170 27.75 C170.09 33.78, 165.22 35.62, 160.75 37 M160.75 37 C114.74 37.96, 69.48 39.01, 9.25 37 M160.75 37 C112.97 35.87, 65.2 34.88, 9.25 37 M9.25 37 C3.6 35.4, -0.39 35.38, 0 27.75 M9.25 37 C4.57 37.04, 1.13 35, 0 27.75 M0 27.75 C1.93 24.47, 1.82 21.34, 0 9.25 M0 27.75 C-0.29 23.06, 0.44 17.42, 0 9.25 M0 9.25 C-1.29 4.8, 4.97 -0.94, 9.25 0 M0 9.25 C-0.53 5.33, 2.42 -0.58, 9.25 0" stroke="#1e1e1e" stroke-width="1" fill="none"></path></g><g stroke-linecap="round"><g transform="translate(200.67962722455917 72.07889670653447) rotate(0 0.45466521490256895 26.544466973570348)"><path d="M-0.51 -0.11 C-0.55 8.75, 0.82 45.4, 0.81 54.31 M1.42 -1.22 C1.16 7.78, -0.03 43.12, 0.04 52.38" stroke="#1e1e1e" stroke-width="1" fill="none"></path></g><g transform="translate(200.67962722455917 72.07889670653447) rotate(0 0.45466521490256895 26.544466973570348)"><path d="M-8.98 27.45 C-4.49 35.16, -2.66 46.1, -0.98 51.73 M-8.5 27.21 C-5.46 33.11, -3.15 40.31, 0.65 53.34" stroke="#1e1e1e" stroke-width="1" fill="none"></path></g><g transform="translate(200.67962722455917 72.07889670653447) rotate(0 0.45466521490256895 26.544466973570348)"><path d="M9.46 27.74 C6.78 35.26, 1.44 46.09, -0.98 51.73 M9.94 27.5 C7.85 33.38, 5.04 40.49, 0.65 53.34" stroke="#1e1e1e" stroke-width="1" fill="none"></path></g></g><mask></mask><g stroke-linecap="round"><g transform="translate(199.950796884024 149.0919693564215) rotate(0 -24.231257671454433 28.331882657033404)"><path d="M-0.82 0.62 C-6.6 4.73, -26.57 14.39, -34.56 23.52 C-42.56 32.66, -46.57 49.98, -48.8 55.43 M0.95 -0.1 C-4.48 3.8, -24 12.53, -32.4 22.01 C-40.79 31.49, -46.35 51.42, -49.41 56.77" stroke="#1e1e1e" stroke-width="1" fill="none"></path></g><g transform="translate(199.950796884024 149.0919693564215) rotate(0 -24.231257671454433 28.331882657033404)"><path d="M-47.5 36.96 C-47.13 44.61, -49.16 51.57, -48.15 57.02 M-49 37.65 C-49 44.54, -48.29 50.55, -49.84 57.61" stroke="#1e1e1e" stroke-width="1" fill="none"></path></g><g transform="translate(199.950796884024 149.0919693564215) rotate(0 -24.231257671454433 28.331882657033404)"><path d="M-36.01 41.85 C-39.16 47.91, -44.76 53.35, -48.15 57.02 M-37.51 42.54 C-41.53 47.79, -44.82 52.1, -49.84 57.61" stroke="#1e1e1e" stroke-width="1" fill="none"></path></g></g><mask></mask><g stroke-linecap="round"><g transform="translate(203.35200513985495 149.8207996969567) rotate(0 31.169941535371592 28.688872568815363)"><path d="M1.07 -1 C7.68 2.26, 29.65 9.03, 39.84 18.75 C50.02 28.47, 58.63 51, 62.17 57.32 M0.17 1.09 C7.13 4.52, 31.75 10.13, 42.04 19.68 C52.32 29.23, 58.7 52.13, 61.9 58.38" stroke="#1e1e1e" stroke-width="1" fill="none"></path></g><g transform="translate(203.35200513985495 149.8207996969567) rotate(0 31.169941535371592 28.688872568815363)"><path d="M45.84 40.75 C49.98 48.86, 55.62 52.05, 60.02 58.61 M46.75 42.85 C51.17 46.25, 55.3 51.36, 62.54 59.29" stroke="#1e1e1e" stroke-width="1" fill="none"></path></g><g transform="translate(203.35200513985495 149.8207996969567) rotate(0 31.169941535371592 28.688872568815363)"><path d="M59.49 35.24 C59.3 45.21, 60.65 50.13, 60.02 58.61 M60.41 37.34 C60.63 42.5, 60.59 49.3, 62.54 59.29" stroke="#1e1e1e" stroke-width="1" fill="none"></path></g></g><mask></mask><g stroke-linecap="round"><g transform="translate(147.71795581233408 233.87923230535074) rotate(0 0.09590788308423015 17.16453199034399)"><path d="M0.17 -0.04 C0.29 5.81, 1.24 29.78, 1.39 35.44 M-1.2 -1.11 C-1.26 4.39, 0.4 27.81, 0.66 33.82" stroke="#1e1e1e" stroke-width="1" fill="none"></path></g><g transform="translate(147.71795581233408 233.87923230535074) rotate(0 0.09590788308423015 17.16453199034399)"><path d="M-6.23 18.57 C-2.34 23.76, -2.08 29.39, 1.1 33.29 M-6.37 17.87 C-4.41 22.09, -3.13 25.3, 0.83 34.61" stroke="#1e1e1e" stroke-width="1" fill="none"></path></g><g transform="translate(147.71795581233408 233.87923230535074) rotate(0 0.09590788308423015 17.16453199034399)"><path d="M5.55 17.89 C5.26 23.34, 1.32 29.21, 1.1 33.29 M5.41 17.19 C4.49 21.47, 2.89 24.85, 0.83 34.61" stroke="#1e1e1e" stroke-width="1" fill="none"></path></g></g><mask></mask><g stroke-linecap="round"><g transform="translate(271.3761702564745 235.33689298642116) rotate(0 -0.5618309063192441 17.916450298937207)"><path d="M0.35 1.13 C-0.01 7.15, -1.47 29.46, -1.73 35.16 M-0.93 0.67 C-0.93 6.46, 0.78 28.04, 0.59 33.52" stroke="#1e1e1e" stroke-width="1" fill="none"></path></g><g transform="translate(271.3761702564745 235.33689298642116) rotate(0 -0.5618309063192441 17.916450298937207)"><path d="M-4.13 16.51 C-2.46 22.6, -0.09 26.78, 1.09 32.27 M-5.46 17.2 C-4.96 20.67, -3.56 26.15, 1.18 34.05" stroke="#1e1e1e" stroke-width="1" fill="none"></path></g><g transform="translate(271.3761702564745 235.33689298642116) rotate(0 -0.5618309063192441 17.916450298937207)"><path d="M7.59 16.17 C5.33 22.4, 3.77 26.7, 1.09 32.27 M6.25 16.86 C3.94 20.3, 2.53 25.86, 1.18 34.05" stroke="#1e1e1e" stroke-width="1" fill="none"></path></g></g><mask></mask><g transform="translate(40.57613070439092 47.32806753812865) rotate(0 33.83997344970703 12.5)"><text x="0" y="0" font-family="Virgil, Segoe UI Emoji" font-size="20px" fill="#1e1e1e" text-anchor="start" style="white-space: pre;" direction="ltr" dominant-baseline="text-before-edge">Nivel 0</text></g><g transform="translate(47.19252635994164 128.66436810171268) rotate(0 29.66997528076172 12.5)"><text x="0" y="0" font-family="Virgil, Segoe UI Emoji" font-size="20px" fill="#1e1e1e" text-anchor="start" style="white-space: pre;" direction="ltr" dominant-baseline="text-before-edge">Nivel 1</text></g><g transform="translate(43.821162267836854 210.13900032757908) rotate(0 34.07997131347656 12.5)"><text x="0" y="0" font-family="Virgil, Segoe UI Emoji" font-size="20px" fill="#1e1e1e" text-anchor="start" style="white-space: pre;" direction="ltr" dominant-baseline="text-before-edge">Nivel 2</text></g><g transform="translate(46.068738329240034 267.4521898933609) rotate(0 33.76997375488281 12.5)"><text x="0" y="0" font-family="Virgil, Segoe UI Emoji" font-size="20px" fill="#1e1e1e" text-anchor="start" style="white-space: pre;" direction="ltr" dominant-baseline="text-before-edge">Nivel 3</text></g><g stroke-linecap="round" transform="translate(10 10) rotate(0 158.46369712576518 157.06445918204986)"><path d="M32 0 M32 0 C95.2 -0.59, 160.5 -0.37, 284.93 0 M32 0 C121.48 -0.31, 212.89 -1.17, 284.93 0 M284.93 0 C307.64 -1.18, 318.63 11.94, 316.93 32 M284.93 0 C306.49 -2.09, 318.98 9.87, 316.93 32 M316.93 32 C317.03 113.55, 315.52 193.42, 316.93 282.13 M316.93 32 C317.91 125.35, 317.67 218.04, 316.93 282.13 M316.93 282.13 C314.94 302.74, 305.21 312.37, 284.93 314.13 M316.93 282.13 C316.7 303.82, 307.98 312.54, 284.93 314.13 M284.93 314.13 C192.14 313.03, 98.81 312.38, 32 314.13 M284.93 314.13 C223.68 314.47, 163.33 315.38, 32 314.13 M32 314.13 C11.83 312.25, -0.67 304.41, 0 282.13 M32 314.13 C8.53 316.03, -1.92 304.58, 0 282.13 M0 282.13 C2.95 203.63, 3.14 128.54, 0 32 M0 282.13 C-1.33 216.13, -0.42 149.55, 0 32 M0 32 C1.71 12.62, 11.72 1.03, 32 0 M0 32 C-2.26 12.55, 11.72 0.4, 32 0" stroke="#1e1e1e" stroke-width="1" fill="none"></path></g></svg>